<mxfile host="app.diagrams.net" agent="Mozilla/5.0 (Macintosh; Intel Mac OS X 10_15_7) AppleWebKit/537.36 (KHTML, like Gecko) Chrome/140.0.0.0 Safari/537.36" version="28.2.5">
  <diagram name="Page-1" id="QjebGiVUjMqBRHSlyXt9">
    <mxGraphModel dx="1072" dy="729" grid="1" gridSize="10" guides="1" tooltips="1" connect="1" arrows="1" fold="1" page="1" pageScale="1" pageWidth="850" pageHeight="1100" math="0" shadow="0">
      <root>
        <mxCell id="0" />
        <mxCell id="1" parent="0" />
        <mxCell id="MN4AeiqkF9qyeQxKgwGj-1" value="&lt;b&gt;Web Application&lt;/b&gt;" style="shape=umlFrame;whiteSpace=wrap;html=1;pointerEvents=0;width=120;height=30;dashed=1;fillColor=#f5f5f5;strokeColor=#666666;fontColor=#333333;" vertex="1" parent="1">
          <mxGeometry x="50" y="40" width="660" height="290" as="geometry" />
        </mxCell>
        <mxCell id="MN4AeiqkF9qyeQxKgwGj-2" value="&lt;b&gt;GUI&lt;/b&gt;" style="shape=umlFrame;whiteSpace=wrap;html=1;pointerEvents=0;width=60;height=30;dashed=1;fillColor=#dae8fc;strokeColor=#6c8ebf;" vertex="1" parent="1">
          <mxGeometry x="70" y="90" width="300" height="220" as="geometry" />
        </mxCell>
        <mxCell id="MN4AeiqkF9qyeQxKgwGj-18" value="&lt;b&gt;Database&lt;/b&gt;" style="shape=umlFrame;whiteSpace=wrap;html=1;pointerEvents=0;width=80;height=30;dashed=1;fillColor=#d5e8d4;strokeColor=#82b366;" vertex="1" parent="1">
          <mxGeometry x="50" y="350" width="660" height="100" as="geometry" />
        </mxCell>
        <mxCell id="MN4AeiqkF9qyeQxKgwGj-31" value="&lt;b&gt;Engine&lt;/b&gt;" style="shape=umlFrame;whiteSpace=wrap;html=1;pointerEvents=0;width=70;height=30;dashed=1;fillColor=#f8cecc;strokeColor=#b85450;" vertex="1" parent="1">
          <mxGeometry x="390" y="90" width="300" height="220" as="geometry" />
        </mxCell>
        <mxCell id="MN4AeiqkF9qyeQxKgwGj-33" value="Spreadsheet" style="html=1;whiteSpace=wrap;fillColor=#dae8fc;strokeColor=#6c8ebf;" vertex="1" parent="1">
          <mxGeometry x="80" y="130" width="280" height="50" as="geometry" />
        </mxCell>
        <mxCell id="MN4AeiqkF9qyeQxKgwGj-34" value="Toolbar" style="html=1;whiteSpace=wrap;fillColor=#dae8fc;strokeColor=#6c8ebf;" vertex="1" parent="1">
          <mxGeometry x="80" y="190" width="280" height="50" as="geometry" />
        </mxCell>
        <mxCell id="MN4AeiqkF9qyeQxKgwGj-35" value="Sidebar" style="html=1;whiteSpace=wrap;fillColor=#dae8fc;strokeColor=#6c8ebf;" vertex="1" parent="1">
          <mxGeometry x="80" y="250" width="280" height="50" as="geometry" />
        </mxCell>
        <mxCell id="MN4AeiqkF9qyeQxKgwGj-36" value="Lexer" style="html=1;whiteSpace=wrap;fillColor=#f8cecc;strokeColor=#b85450;" vertex="1" parent="1">
          <mxGeometry x="400" y="130" width="280" height="50" as="geometry" />
        </mxCell>
        <mxCell id="MN4AeiqkF9qyeQxKgwGj-37" value="Parser" style="html=1;whiteSpace=wrap;fillColor=#f8cecc;strokeColor=#b85450;" vertex="1" parent="1">
          <mxGeometry x="400" y="190" width="280" height="50" as="geometry" />
        </mxCell>
        <mxCell id="MN4AeiqkF9qyeQxKgwGj-38" value="Runtime" style="html=1;whiteSpace=wrap;fillColor=#f8cecc;strokeColor=#b85450;" vertex="1" parent="1">
          <mxGeometry x="400" y="250" width="280" height="50" as="geometry" />
        </mxCell>
        <mxCell id="MN4AeiqkF9qyeQxKgwGj-39" value="Authentication" style="html=1;whiteSpace=wrap;fillColor=#d5e8d4;strokeColor=#82b366;" vertex="1" parent="1">
          <mxGeometry x="60" y="390" width="200" height="50" as="geometry" />
        </mxCell>
        <mxCell id="MN4AeiqkF9qyeQxKgwGj-42" value="Logging" style="html=1;whiteSpace=wrap;fillColor=#d5e8d4;strokeColor=#82b366;" vertex="1" parent="1">
          <mxGeometry x="500" y="390" width="200" height="50" as="geometry" />
        </mxCell>
        <mxCell id="MN4AeiqkF9qyeQxKgwGj-43" value="Projects" style="html=1;whiteSpace=wrap;fillColor=#d5e8d4;strokeColor=#82b366;" vertex="1" parent="1">
          <mxGeometry x="280" y="390" width="200" height="50" as="geometry" />
        </mxCell>
      </root>
    </mxGraphModel>
  </diagram>
</mxfile>
